<svg xmlns="http://www.w3.org/2000/svg" viewBox="0 0 108.5 70.16">
  <title>mortarboard</title>
  <path d="M449.82,238.42a9.39,9.39,0,0,1,2-1.72c2.12-1,4.3-1.79,6.48-2.59,2.93-1.06,5.89-2,8.83-3.06S473,229,476,227.92l8.7-3.09,8.56-3c3-1.07,6.06-2.23,9.13-3.21a5.33,5.33,0,0,1,3.12-.13c5.41,1.85,10.76,3.9,16.15,5.8,4.55,1.6,9.15,3.05,13.7,4.66s9,3.31,13.56,5c2.48.91,5,1.75,7.42,2.77a8.61,8.61,0,0,1,2,1.72v3a7.24,7.24,0,0,1-1.29,1.3,25.24,25.24,0,0,1-3.4,1.72c-1.12.46-2.36.63-3.46,1.14A2.14,2.14,0,0,0,549,247c-.1,3.42-.05,6.84,0,10.27a1.37,1.37,0,0,0,.1.65c2.43,4.23,1,8.84,1.1,13.27,0,2.42-1.66,3.59-3.84,3.43s-3.39-1.41-3.41-3.91c0-3.2-.07-6.41,0-9.61a10.07,10.07,0,0,1,.84-2.72c.12-.36.44-.7.44-1.05,0-2.81.1-5.63,0-8.44,0-1.18-1.05-.92-1.74-.7-1.77.56-3.51,1.2-5.25,1.83-1.08.39-1.12,1.32-1.12,2.31,0,6.18.12,12.37-.07,18.55a7.38,7.38,0,0,1-1.72,4.4,40.1,40.1,0,0,1-16.06,10.63,39.28,39.28,0,0,1-18.08,2.32,40.77,40.77,0,0,1-26.87-13.91,6.88,6.88,0,0,1-1.32-4.08c-.14-6-.09-11.93,0-17.89a2.28,2.28,0,0,0-2-2.61c-2.94-.85-5.8-2-8.7-3.05-2.7-1-5.42-1.86-8.07-3a14.74,14.74,0,0,1-2.73-2,5.2,5.2,0,0,0-.67-.36Q449.82,239.91,449.82,238.42Zm16.24,1.29a12.67,12.67,0,0,0,1.65,1c2.85,1,5.71,2,8.56,3s5.83,2,8.73,3,5.58,2,8.37,3c3.1,1.1,6.18,2.24,9.32,3.21a5.07,5.07,0,0,0,2.93,0c3.72-1.24,7.38-2.68,11.08-4s7.42-2.51,11.13-3.8q6-2.09,12-4.25a20.54,20.54,0,0,0,2.31-1.23l-8.57-3c-2.9-1-5.81-2-8.71-3s-5.57-2-8.37-3c-3.1-1.1-6.18-2.28-9.33-3.21-1.43-.42-2.7-1.46-4.53-.62a87.92,87.92,0,0,1-8.57,3q-4.06,1.39-8.1,2.84l-11.37,4.08C471.92,237.67,469.22,238.61,466.06,239.71Zm62.47,22.43h0c0-2.43,0-4.86,0-7.28,0-1.32-.45-1.64-1.69-1.14-2.12.85-4.3,1.52-6.45,2.29-2.85,1-5.69,2.05-8.53,3.08-1.95.7-3.87,1.48-5.85,2.06-2.52.74-4.8-.39-7.11-1.22-2.9-1-5.81-2.05-8.73-3.07s-5.83-2-8.71-3.05c-1.58-.59-1.88-.48-1.89,1.28,0,4.47,0,8.94,0,13.41a3,3,0,0,0,.66,1.92,33.14,33.14,0,0,0,20.37,9.92,32.15,32.15,0,0,0,14-1.48,35.41,35.41,0,0,0,12.84-7.66,3.64,3.64,0,0,0,.94-2.28C528.61,266.67,528.53,264.41,528.53,262.14Z" transform="translate(-449.82 -218.32)"/>
</svg>
