<svg xmlns="http://www.w3.org/2000/svg" viewBox="0 0 60.46 60.24">
  <title>skills-icon</title>
  <g>
    <path d="M464.92,289.43l16.36-16.09c-3.29-3.25-6.32-6.29-9.43-9.25-.33-.32-1.14-.26-1.71-.2-7.8.9-14-6.78-11.13-14.13l5.88,6.47,6.53-6.82-6.2-5.51.4-.6a9.76,9.76,0,0,1,9.19,1.3,10.26,10.26,0,0,1,4.51,10.46,2.1,2.1,0,0,0,.28,1.54c2.94,3,5.94,6,9,9.1l15-15.21,7.46,7.7-15.14,15c3,3,5.79,5.76,8.66,8.45.37.35,1.26.26,1.89.19A10.5,10.5,0,0,1,517.63,296l-5.71-6.5-6.78,6.79,6.14,5.69-.11.58a22.88,22.88,0,0,1-4.19.39,10.6,10.6,0,0,1-9.62-12.24,1.86,1.86,0,0,0-.27-1.37c-2.76-2.83-5.57-5.61-8.61-8.63L472.53,296.8l-.29-2.21-4.07-.61C467.15,292.34,468.95,289.19,464.92,289.43Z" transform="translate(-458.28 -242.69)"/>
    <path d="M506.93,247.29c1-.91,2-2,3.08-2.91a5.33,5.33,0,0,1,7,.17,5.2,5.2,0,0,1,.77,6.91,41.69,41.69,0,0,1-3.31,3.58Z" transform="translate(-458.28 -242.69)"/>
    <path d="M458.94,302.78l3.25-10.49c2.62-.1,2.73-.1,2.78,2.19,0,1.78.72,2.56,2.52,2.44a9.73,9.73,0,0,1,2,.26c.55,2.41.55,2.4-1.66,3.06l-7.15,2.12C460.2,302.5,459.73,302.59,458.94,302.78Z" transform="translate(-458.28 -242.69)"/>
  </g>
</svg>
